<svg width="1600" height="1100" viewBox="0 0 1600 1100" fill="none" xmlns="http://www.w3.org/2000/svg">
  <defs>
    <linearGradient id="bgB" x1="0" y1="0" x2="1600" y2="1100" gradientUnits="userSpaceOnUse">
      <stop stop-color="#15181D"/>
      <stop offset="1" stop-color="#1D232B"/>
    </linearGradient>
    <linearGradient id="panelB" x1="0" y1="0" x2="1" y2="1">
      <stop stop-color="#24303A"/>
      <stop offset="1" stop-color="#171B21"/>
    </linearGradient>
    <filter id="shadowB" x="-50" y="-50" width="1700" height="1200" filterUnits="userSpaceOnUse" color-interpolation-filters="sRGB">
      <feDropShadow dx="0" dy="20" stdDeviation="24" flood-color="#0B0D10" flood-opacity="0.35"/>
    </filter>
  </defs>
  <rect width="1600" height="1100" fill="url(#bgB)"/>
  <g filter="url(#shadowB)">
    <rect x="82" y="86" width="1436" height="928" rx="38" fill="#1B2027" stroke="#313844" stroke-width="2"/>
    <rect x="134" y="156" width="494" height="790" rx="30" fill="url(#panelB)" stroke="#313A47"/>
    <rect x="176" y="204" width="410" height="22" rx="11" fill="#5B6777"/>
    <rect x="176" y="246" width="220" height="14" rx="7" fill="#465160"/>
    <rect x="176" y="320" width="410" height="186" rx="22" fill="#171B21"/>
    <rect x="208" y="350" width="150" height="120" rx="18" fill="#232A35"/>
    <path d="M264 376L316 398V458C316 504 282 534 264 544C246 534 212 504 212 458V398L264 376Z" fill="#2F6D5A"/>
    <path d="M242 456L258 472L290 438" stroke="#E3ECE7" stroke-width="10" stroke-linecap="round" stroke-linejoin="round"/>
    <rect x="390" y="362" width="150" height="16" rx="8" fill="#5B6777"/>
    <rect x="390" y="402" width="122" height="12" rx="6" fill="#465160"/>
    <rect x="390" y="436" width="138" height="12" rx="6" fill="#465160"/>
    <rect x="176" y="548" width="410" height="352" rx="22" fill="#171B21"/>
    <rect x="212" y="588" width="338" height="26" rx="13" fill="#232A35"/>
    <rect x="212" y="646" width="338" height="30" rx="15" fill="#11151A"/>
    <rect x="212" y="646" width="280" height="30" rx="15" fill="#2F6D5A"/>
    <rect x="212" y="704" width="338" height="30" rx="15" fill="#11151A"/>
    <rect x="212" y="704" width="238" height="30" rx="15" fill="#3B5E53"/>
    <rect x="212" y="762" width="338" height="30" rx="15" fill="#11151A"/>
    <rect x="212" y="762" width="310" height="30" rx="15" fill="#678371"/>
    <rect x="698" y="156" width="768" height="378" rx="30" fill="url(#panelB)" stroke="#313A47"/>
    <rect x="746" y="204" width="300" height="18" rx="9" fill="#5B6777"/>
    <rect x="746" y="258" width="630" height="228" rx="22" fill="#171B21"/>
    <path d="M800 436L908 352L1020 390L1128 314L1266 344L1322 292" stroke="#7CA691" stroke-width="16" stroke-linecap="round" stroke-linejoin="round"/>
    <circle cx="800" cy="436" r="14" fill="#2F6D5A"/>
    <circle cx="908" cy="352" r="14" fill="#2F6D5A"/>
    <circle cx="1020" cy="390" r="14" fill="#2F6D5A"/>
    <circle cx="1128" cy="314" r="14" fill="#2F6D5A"/>
    <circle cx="1266" cy="344" r="14" fill="#2F6D5A"/>
    <circle cx="1322" cy="292" r="14" fill="#2F6D5A"/>
    <rect x="698" y="576" width="768" height="370" rx="30" fill="url(#panelB)" stroke="#313A47"/>
    <rect x="746" y="624" width="206" height="16" rx="8" fill="#5B6777"/>
    <rect x="746" y="674" width="214" height="210" rx="22" fill="#171B21"/>
    <rect x="778" y="710" width="150" height="16" rx="8" fill="#465160"/>
    <rect x="778" y="750" width="116" height="12" rx="6" fill="#3A4452"/>
    <rect x="1002" y="674" width="420" height="210" rx="22" fill="#171B21"/>
    <rect x="1034" y="714" width="356" height="26" rx="13" fill="#11151A"/>
    <rect x="1034" y="714" width="290" height="26" rx="13" fill="#2F6D5A"/>
    <rect x="1034" y="766" width="356" height="26" rx="13" fill="#11151A"/>
    <rect x="1034" y="766" width="232" height="26" rx="13" fill="#4A655A"/>
    <rect x="1034" y="818" width="356" height="26" rx="13" fill="#11151A"/>
    <rect x="1034" y="818" width="316" height="26" rx="13" fill="#718B78"/>
  </g>
</svg>
