<svg width="1600" height="1100" viewBox="0 0 1600 1100" fill="none" xmlns="http://www.w3.org/2000/svg">
  <defs>
    <linearGradient id="bgC" x1="0" y1="0" x2="1600" y2="1100" gradientUnits="userSpaceOnUse">
      <stop stop-color="#15181D"/>
      <stop offset="1" stop-color="#1D232B"/>
    </linearGradient>
    <linearGradient id="photoC" x1="0" y1="0" x2="1" y2="1">
      <stop stop-color="#6F5B45"/>
      <stop offset="1" stop-color="#26333B"/>
    </linearGradient>
    <filter id="shadowC" x="-50" y="-50" width="1700" height="1200" filterUnits="userSpaceOnUse" color-interpolation-filters="sRGB">
      <feDropShadow dx="0" dy="20" stdDeviation="24" flood-color="#0B0D10" flood-opacity="0.35"/>
    </filter>
  </defs>
  <rect width="1600" height="1100" fill="url(#bgC)"/>
  <g filter="url(#shadowC)">
    <rect x="78" y="84" width="1444" height="932" rx="38" fill="#1B2027" stroke="#313844" stroke-width="2"/>
    <rect x="126" y="144" width="1348" height="150" rx="28" fill="#20262F" stroke="#313A47"/>
    <circle cx="198" cy="220" r="34" fill="#2F6D5A"/>
    <rect x="254" y="198" width="196" height="18" rx="9" fill="#5B6777"/>
    <rect x="254" y="232" width="128" height="12" rx="6" fill="#465160"/>
    <rect x="1120" y="186" width="306" height="68" rx="20" fill="#171B21" stroke="#2D3541"/>
    <rect x="1150" y="214" width="92" height="12" rx="6" fill="#80AE99"/>
    <rect x="1264" y="214" width="60" height="12" rx="6" fill="#5B6777"/>
    <circle cx="1364" cy="220" r="8" fill="#80AE99"/>
    <rect x="126" y="346" width="418" height="590" rx="28" fill="#20262F" stroke="#313A47"/>
    <rect x="152" y="372" width="366" height="214" rx="22" fill="url(#photoC)"/>
    <circle cx="206" cy="638" r="28" fill="#355F54"/>
    <rect x="252" y="620" width="182" height="16" rx="8" fill="#5B6777"/>
    <rect x="252" y="652" width="120" height="12" rx="6" fill="#465160"/>
    <rect x="188" y="712" width="294" height="150" rx="20" fill="#171B21"/>
    <rect x="216" y="742" width="230" height="14" rx="7" fill="#465160"/>
    <rect x="216" y="776" width="192" height="14" rx="7" fill="#465160"/>
    <rect x="216" y="816" width="140" height="12" rx="6" fill="#3A4452"/>
    <rect x="592" y="346" width="418" height="590" rx="28" fill="#20262F" stroke="#313A47"/>
    <rect x="618" y="372" width="366" height="214" rx="22" fill="url(#photoC)"/>
    <circle cx="672" cy="638" r="28" fill="#2F6D5A"/>
    <rect x="718" y="620" width="182" height="16" rx="8" fill="#5B6777"/>
    <rect x="718" y="652" width="140" height="12" rx="6" fill="#465160"/>
    <rect x="654" y="712" width="294" height="150" rx="20" fill="#171B21"/>
    <rect x="682" y="742" width="230" height="14" rx="7" fill="#465160"/>
    <rect x="682" y="776" width="250" height="26" rx="13" fill="#11151A"/>
    <rect x="682" y="776" width="196" height="26" rx="13" fill="#2F6D5A"/>
    <rect x="1058" y="346" width="416" height="590" rx="28" fill="#171B21" stroke="#2D3541"/>
    <rect x="1090" y="390" width="150" height="16" rx="8" fill="#5B6777"/>
    <circle cx="1188" cy="564" r="56" fill="#20262F"/>
    <circle cx="1344" cy="490" r="24" fill="#355F54"/>
    <circle cx="1336" cy="640" r="24" fill="#2F6D5A"/>
    <circle cx="1180" cy="736" r="24" fill="#4A655A"/>
    <path d="M1228 540L1320 500" stroke="#6EA48D" stroke-width="12" stroke-linecap="round"/>
    <path d="M1220 600L1310 632" stroke="#6EA48D" stroke-width="12" stroke-linecap="round"/>
    <path d="M1204 692L1184 716" stroke="#6EA48D" stroke-width="12" stroke-linecap="round"/>
    <rect x="1090" y="804" width="350" height="18" rx="9" fill="#3A4452"/>
  </g>
</svg>
