<svg width="1600" height="1100" viewBox="0 0 1600 1100" fill="none" xmlns="http://www.w3.org/2000/svg">
  <defs>
    <linearGradient id="bgA" x1="0" y1="0" x2="1600" y2="1100" gradientUnits="userSpaceOnUse">
      <stop stop-color="#15181D"/>
      <stop offset="1" stop-color="#1D232B"/>
    </linearGradient>
    <linearGradient id="heroA" x1="0" y1="0" x2="1" y2="1">
      <stop stop-color="#6E5843"/>
      <stop offset="1" stop-color="#2F6D5A"/>
    </linearGradient>
    <filter id="shadowA" x="-50" y="-50" width="1700" height="1200" filterUnits="userSpaceOnUse" color-interpolation-filters="sRGB">
      <feDropShadow dx="0" dy="20" stdDeviation="24" flood-color="#0B0D10" flood-opacity="0.35"/>
    </filter>
  </defs>
  <rect width="1600" height="1100" fill="url(#bgA)"/>
  <g filter="url(#shadowA)">
    <rect x="78" y="84" width="1444" height="932" rx="38" fill="#1B2027" stroke="#313844" stroke-width="2"/>
    <rect x="78" y="84" width="1444" height="86" rx="38" fill="#181C22"/>
    <circle cx="130" cy="127" r="8" fill="#4B5666"/>
    <circle cx="162" cy="127" r="8" fill="#4B5666"/>
    <circle cx="194" cy="127" r="8" fill="#4B5666"/>
    <rect x="1160" y="107" width="220" height="40" rx="18" fill="#222934" stroke="#384352"/>
    <rect x="1260" y="470" width="200" height="438" rx="28" fill="#171B21" stroke="#2D3541"/>
    <rect x="1260" y="470" width="200" height="160" rx="28" fill="url(#heroA)"/>
    <rect x="1290" y="662" width="140" height="16" rx="8" fill="#667283"/>
    <rect x="1290" y="696" width="100" height="12" rx="6" fill="#4D5968"/>
    <rect x="1290" y="750" width="140" height="54" rx="16" fill="#232A35"/>
    <rect x="1290" y="824" width="140" height="54" rx="16" fill="#232A35"/>
    <rect x="142" y="218" width="790" height="650" rx="30" fill="#20262F" stroke="#313A47"/>
    <rect x="182" y="254" width="710" height="318" rx="22" fill="url(#heroA)"/>
    <rect x="216" y="286" width="200" height="18" rx="9" fill="#E1EAE5" fill-opacity="0.82"/>
    <rect x="216" y="324" width="330" height="14" rx="7" fill="#D2DCD7" fill-opacity="0.55"/>
    <rect x="216" y="432" width="150" height="48" rx="18" fill="#294F44" stroke="#486E62"/>
    <rect x="386" y="432" width="170" height="48" rx="18" fill="#1E242D" stroke="#425064"/>
    <rect x="216" y="610" width="330" height="208" rx="22" fill="#171B21"/>
    <rect x="236" y="632" width="290" height="110" rx="18" fill="#262E39"/>
    <rect x="236" y="760" width="120" height="34" rx="12" fill="#2F6D5A"/>
    <rect x="580" y="610" width="272" height="208" rx="22" fill="#171B21"/>
    <rect x="602" y="642" width="228" height="18" rx="9" fill="#5E6A7B"/>
    <rect x="602" y="686" width="164" height="14" rx="7" fill="#465160"/>
    <rect x="602" y="724" width="206" height="14" rx="7" fill="#465160"/>
    <rect x="602" y="770" width="184" height="14" rx="7" fill="#465160"/>
    <rect x="982" y="218" width="228" height="250" rx="26" fill="#171B21" stroke="#2D3541"/>
    <rect x="1010" y="250" width="172" height="14" rx="7" fill="#5E6A7B"/>
    <rect x="1010" y="292" width="110" height="88" rx="18" fill="#232A35"/>
    <path d="M1046 336H1084" stroke="#80AE99" stroke-width="14" stroke-linecap="round"/>
    <path d="M1065 317V355" stroke="#80AE99" stroke-width="14" stroke-linecap="round"/>
    <rect x="1136" y="302" width="46" height="46" rx="14" fill="#2F6D5A"/>
    <path d="M1148 325L1158 335L1172 319" stroke="#E4EDE8" stroke-width="8" stroke-linecap="round" stroke-linejoin="round"/>
    <rect x="1010" y="414" width="172" height="26" rx="13" fill="#232A35"/>
    <rect x="1010" y="520" width="228" height="348" rx="26" fill="#171B21" stroke="#2D3541"/>
    <rect x="1010" y="552" width="132" height="16" rx="8" fill="#5E6A7B"/>
    <path d="M1042 770C1088 710 1140 692 1190 650" stroke="#6EA48D" stroke-width="16" stroke-linecap="round"/>
    <circle cx="1042" cy="770" r="14" fill="#2F6D5A"/>
    <circle cx="1112" cy="714" r="14" fill="#2F6D5A"/>
    <circle cx="1190" cy="650" r="14" fill="#2F6D5A"/>
  </g>
</svg>
