<svg xmlns="http://www.w3.org/2000/svg" xmlns:xlink="http://www.w3.org/1999/xlink" width="300" zoomAndPan="magnify" viewBox="0 0 224.87999 30.000001" height="40" preserveAspectRatio="xMidYMid meet" version="1.0"><defs><clipPath id="2153cd1f80"><path d="M 196 0.171875 L 213 0.171875 L 213 9 L 196 9 Z M 196 0.171875 " clip-rule="nonzero"/></clipPath><clipPath id="9bd33fbb9b"><path d="M 86 0.171875 L 139 0.171875 L 139 29 L 86 29 Z M 86 0.171875 " clip-rule="nonzero"/></clipPath><clipPath id="cd66602d20"><path d="M 196 0.347656 L 213 0.347656 L 213 9 L 196 9 Z M 196 0.347656 " clip-rule="nonzero"/></clipPath><clipPath id="c453b7ff67"><path d="M 86 0.347656 L 139 0.347656 L 139 29.03125 L 86 29.03125 Z M 86 0.347656 " clip-rule="nonzero"/></clipPath></defs><g clip-path="url(#2153cd1f80)"><path fill="#c9a84c" d="M 211.882812 5.761719 C 211.800781 5.761719 211.71875 5.730469 211.636719 5.667969 C 211.554688 5.601562 211.515625 5.535156 211.515625 5.464844 C 211.515625 5.394531 211.574219 5.210938 211.6875 4.914062 C 211.808594 4.613281 211.867188 4.371094 211.867188 4.183594 C 211.867188 4.019531 211.804688 3.804688 211.683594 3.535156 C 211.558594 3.265625 211.496094 3.09375 211.496094 3.023438 C 211.496094 2.921875 211.632812 2.828125 211.898438 2.746094 C 212.132812 2.765625 212.335938 2.941406 212.503906 3.261719 C 212.675781 3.585938 212.757812 3.980469 212.757812 4.445312 C 212.757812 4.789062 212.664062 5.089844 212.472656 5.359375 C 212.277344 5.628906 212.082031 5.761719 211.882812 5.761719 Z M 208.390625 8.378906 C 208.238281 8.378906 208.105469 8.324219 207.996094 8.21875 C 207.882812 8.113281 207.828125 7.996094 207.828125 7.867188 C 207.828125 7.761719 207.886719 7.65625 208.003906 7.554688 C 207.957031 7.460938 207.863281 7.410156 207.722656 7.410156 L 207.632812 7.410156 C 207.457031 7.410156 207.148438 7.113281 206.703125 6.519531 L 206.722656 6.675781 C 206.828125 6.851562 206.878906 7.007812 206.878906 7.148438 C 206.878906 7.59375 206.703125 7.816406 206.351562 7.816406 C 206.214844 7.816406 205.972656 7.578125 205.632812 7.097656 C 205.167969 6.429688 204.699219 5.894531 204.230469 5.484375 L 204.003906 5.359375 L 203.914062 5.410156 C 203.949219 5.585938 204.109375 5.839844 204.398438 6.167969 C 204.683594 6.496094 204.828125 6.742188 204.828125 6.902344 C 204.828125 6.976562 204.796875 7.007812 204.738281 7.007812 C 204.738281 7.007812 204.453125 6.746094 203.84375 6.21875 C 202.792969 5.308594 201.445312 4.679688 199.808594 4.339844 L 199.613281 4.394531 C 199.683594 4.605469 199.878906 4.84375 200.195312 5.113281 C 200.460938 5.347656 200.597656 5.570312 200.597656 5.78125 L 200.597656 6.117188 C 200.597656 6.265625 200.507812 6.34375 200.332031 6.34375 C 200.296875 6.34375 200.214844 6.328125 200.085938 6.296875 C 199.960938 6.269531 199.851562 6.253906 199.773438 6.253906 C 199.722656 6.253906 199.703125 6.289062 199.703125 6.359375 C 199.703125 6.429688 199.746094 6.527344 199.832031 6.648438 C 199.921875 6.773438 199.964844 6.863281 199.964844 6.921875 C 199.964844 6.992188 199.941406 7.027344 199.894531 7.027344 C 199.894531 7.027344 199.828125 7.003906 199.738281 6.957031 C 199.527344 6.875 199.339844 6.722656 199.183594 6.492188 C 199.027344 6.261719 198.949219 6.078125 198.949219 5.9375 C 198.949219 5.796875 199.003906 5.609375 199.113281 5.367188 C 199.222656 5.128906 199.28125 4.976562 199.28125 4.921875 C 199.28125 4.769531 199.234375 4.636719 199.148438 4.527344 C 199.0625 4.417969 198.96875 4.359375 198.875 4.359375 C 198.792969 4.359375 198.644531 4.433594 198.429688 4.585938 C 198.214844 4.738281 198.015625 4.816406 197.84375 4.816406 L 197.769531 4.816406 C 197.667969 4.605469 197.523438 4.5 197.347656 4.5 C 197.292969 4.5 197.21875 4.507812 197.140625 4.527344 C 197.058594 4.542969 197.003906 4.550781 196.980469 4.550781 C 196.875 4.550781 196.824219 4.476562 196.824219 4.324219 C 196.824219 4.195312 196.863281 4.050781 196.945312 3.886719 C 197.027344 3.722656 197.097656 3.640625 197.15625 3.640625 C 197.167969 3.640625 197.304688 3.6875 197.5625 3.78125 C 197.65625 3.675781 197.746094 3.570312 197.832031 3.472656 C 197.921875 3.375 198.011719 3.324219 198.105469 3.324219 C 198.1875 3.324219 198.34375 3.394531 198.578125 3.535156 C 198.8125 3.675781 198.957031 3.742188 199.015625 3.742188 C 199.214844 3.742188 199.316406 3.546875 199.316406 3.148438 C 199.316406 3.101562 199.253906 2.957031 199.132812 2.71875 C 199.007812 2.476562 198.949219 2.292969 198.949219 2.164062 C 198.949219 2.023438 199.046875 1.84375 199.253906 1.621094 C 199.460938 1.398438 199.621094 1.289062 199.738281 1.289062 C 199.761719 1.289062 199.796875 1.300781 199.839844 1.320312 C 199.808594 1.371094 199.753906 1.460938 199.683594 1.605469 L 199.613281 1.796875 L 199.753906 1.867188 C 200.222656 1.902344 200.457031 2.066406 200.457031 2.359375 C 200.457031 2.675781 200.355469 2.949219 200.148438 3.175781 C 199.945312 3.402344 199.839844 3.546875 199.839844 3.605469 C 199.839844 3.792969 200.011719 3.886719 200.351562 3.886719 C 201.441406 3.886719 202.902344 3.269531 204.738281 2.042969 L 204.863281 2.007812 C 204.945312 2.019531 204.984375 2.070312 204.984375 2.164062 C 204.984375 2.304688 204.84375 2.449219 204.5625 2.597656 C 204.28125 2.742188 204.132812 2.878906 204.105469 3.007812 C 204.132812 3.03125 204.148438 3.042969 204.160156 3.042969 C 204.582031 3.042969 204.957031 2.863281 205.285156 2.5 C 205.414062 2.359375 205.644531 2.046875 205.984375 1.570312 C 206.183594 1.289062 206.347656 1.148438 206.476562 1.148438 C 206.710938 1.148438 206.933594 1.351562 207.144531 1.761719 C 207.398438 1.691406 207.570312 1.554688 207.652344 1.347656 C 207.734375 1.144531 207.8125 0.949219 207.878906 0.769531 C 207.949219 0.585938 208.082031 0.496094 208.285156 0.496094 C 208.503906 0.496094 208.710938 0.589844 208.898438 0.777344 C 209.085938 0.964844 209.179688 1.171875 209.179688 1.394531 C 209.179688 1.957031 208.398438 2.59375 206.828125 3.308594 C 206.523438 3.449219 206.035156 3.558594 205.363281 3.640625 C 204.691406 3.722656 204.207031 3.839844 203.914062 3.988281 C 204.113281 4.0625 204.289062 4.09375 204.441406 4.09375 C 204.453125 4.09375 204.480469 4.09375 204.527344 4.09375 C 204.585938 4.085938 204.632812 4.078125 204.667969 4.078125 C 204.679688 4.078125 204.710938 4.085938 204.757812 4.09375 C 204.792969 4.09375 204.828125 4.09375 204.863281 4.09375 C 206.125 4.09375 207.378906 3.941406 208.617188 3.628906 C 209.859375 3.320312 210.472656 3.164062 210.460938 3.164062 C 210.507812 3.164062 210.554688 3.179688 210.601562 3.203125 C 210.648438 3.226562 210.71875 3.324219 210.8125 3.5 C 211.328125 3.546875 211.585938 3.753906 211.585938 4.128906 C 211.585938 4.480469 211.410156 4.789062 211.058594 5.042969 C 211.070312 5.054688 211.089844 5.082031 211.117188 5.121094 C 211.148438 5.164062 211.171875 5.195312 211.199219 5.21875 C 211.128906 5.394531 210.988281 5.484375 210.777344 5.484375 C 210.695312 5.484375 210.425781 5.40625 209.96875 5.253906 C 209.386719 5.054688 208.875 4.902344 208.441406 4.796875 C 208.242188 4.75 207.554688 4.6875 206.371094 4.605469 C 204.847656 4.5 204.085938 4.445312 204.074219 4.445312 C 203.828125 4.445312 203.605469 4.46875 203.40625 4.515625 C 203.71875 4.660156 204.253906 4.796875 205.003906 4.9375 C 205.832031 5.078125 206.464844 5.230469 206.898438 5.394531 C 207.660156 5.675781 208.289062 6.042969 208.792969 6.5 C 209.214844 6.875 209.425781 7.183594 209.425781 7.429688 C 209.425781 7.652344 209.3125 7.867188 209.082031 8.074219 C 208.855469 8.273438 208.621094 8.378906 208.390625 8.378906 Z M 208.390625 8.378906 " fill-opacity="1" fill-rule="nonzero"/></g><path fill="#c9a84c" d="M 11.441406 5.910156 C 11.246094 5.640625 11.152344 5.335938 11.152344 4.996094 C 11.152344 4.527344 11.234375 4.132812 11.40625 3.808594 C 11.574219 3.488281 11.777344 3.316406 12.011719 3.292969 C 12.28125 3.375 12.414062 3.46875 12.414062 3.570312 C 12.414062 3.644531 12.351562 3.8125 12.230469 4.082031 C 12.105469 4.351562 12.046875 4.566406 12.046875 4.734375 C 12.046875 4.917969 12.105469 5.160156 12.222656 5.460938 C 12.335938 5.757812 12.398438 5.945312 12.398438 6.011719 C 12.398438 6.082031 12.355469 6.152344 12.273438 6.214844 C 12.191406 6.277344 12.109375 6.3125 12.027344 6.3125 C 11.828125 6.3125 11.632812 6.179688 11.441406 5.910156 Z M 14.828125 8.621094 C 14.597656 8.414062 14.484375 8.199219 14.484375 7.980469 C 14.484375 7.734375 14.695312 7.421875 15.117188 7.050781 C 15.621094 6.589844 16.25 6.222656 17.011719 5.945312 C 17.445312 5.777344 18.078125 5.625 18.910156 5.484375 C 19.65625 5.347656 20.1875 5.207031 20.503906 5.066406 C 20.308594 5.019531 20.082031 4.996094 19.839844 4.996094 C 19.828125 4.996094 19.0625 5.046875 17.539062 5.152344 C 16.359375 5.234375 15.667969 5.300781 15.46875 5.347656 C 15.035156 5.453125 14.527344 5.605469 13.941406 5.804688 C 13.484375 5.953125 13.214844 6.03125 13.132812 6.03125 C 12.925781 6.03125 12.78125 5.945312 12.710938 5.765625 C 12.738281 5.746094 12.761719 5.710938 12.792969 5.671875 C 12.820312 5.628906 12.84375 5.605469 12.851562 5.59375 C 12.5 5.335938 12.328125 5.03125 12.328125 4.679688 C 12.328125 4.304688 12.582031 4.09375 13.097656 4.046875 C 13.191406 3.871094 13.261719 3.773438 13.308594 3.75 C 13.355469 3.726562 13.402344 3.714844 13.449219 3.714844 C 13.4375 3.714844 14.050781 3.871094 15.292969 4.179688 C 16.53125 4.488281 17.785156 4.644531 19.046875 4.644531 C 19.082031 4.644531 19.117188 4.644531 19.152344 4.644531 C 19.199219 4.632812 19.230469 4.628906 19.242188 4.628906 C 19.277344 4.628906 19.324219 4.632812 19.382812 4.644531 C 19.429688 4.644531 19.457031 4.644531 19.46875 4.644531 C 19.621094 4.644531 19.796875 4.609375 19.996094 4.539062 C 19.703125 4.386719 19.222656 4.269531 18.550781 4.1875 C 17.875 4.105469 17.386719 3.996094 17.082031 3.855469 C 15.515625 3.140625 14.730469 2.503906 14.730469 1.941406 C 14.730469 1.71875 14.824219 1.515625 15.011719 1.328125 C 15.199219 1.140625 15.40625 1.046875 15.625 1.046875 C 15.828125 1.046875 15.960938 1.136719 16.03125 1.320312 C 16.101562 1.5 16.175781 1.695312 16.257812 1.898438 C 16.339844 2.101562 16.511719 2.242188 16.765625 2.308594 C 16.976562 1.898438 17.199219 1.695312 17.433594 1.695312 C 17.5625 1.695312 17.726562 1.835938 17.925781 2.117188 C 18.265625 2.597656 18.5 2.90625 18.628906 3.046875 C 18.957031 3.410156 19.328125 3.59375 19.75 3.59375 C 19.761719 3.59375 19.777344 3.578125 19.804688 3.554688 C 19.777344 3.425781 19.628906 3.289062 19.347656 3.144531 C 19.066406 2.996094 18.925781 2.855469 18.925781 2.714844 C 18.925781 2.621094 18.964844 2.566406 19.046875 2.554688 L 19.171875 2.589844 C 21.007812 3.820312 22.46875 4.433594 23.558594 4.433594 C 23.898438 4.433594 24.070312 4.339844 24.070312 4.152344 C 24.070312 4.09375 23.964844 3.953125 23.761719 3.722656 C 23.558594 3.496094 23.453125 3.222656 23.453125 2.90625 C 23.453125 2.613281 23.6875 2.449219 24.15625 2.414062 L 24.296875 2.34375 L 24.226562 2.152344 C 24.15625 2.011719 24.101562 1.917969 24.070312 1.871094 C 24.113281 1.847656 24.152344 1.835938 24.171875 1.835938 C 24.289062 1.835938 24.453125 1.949219 24.65625 2.167969 C 24.863281 2.390625 24.964844 2.574219 24.964844 2.714844 C 24.964844 2.839844 24.902344 3.027344 24.777344 3.265625 C 24.65625 3.507812 24.59375 3.648438 24.59375 3.695312 C 24.59375 4.09375 24.695312 4.292969 24.894531 4.292969 C 24.953125 4.292969 25.097656 4.222656 25.332031 4.082031 C 25.566406 3.941406 25.726562 3.871094 25.804688 3.871094 C 25.898438 3.871094 25.988281 3.921875 26.078125 4.019531 C 26.164062 4.121094 26.257812 4.222656 26.351562 4.328125 C 26.605469 4.234375 26.742188 4.1875 26.753906 4.1875 C 26.8125 4.1875 26.882812 4.269531 26.964844 4.433594 C 27.046875 4.597656 27.085938 4.742188 27.085938 4.875 C 27.085938 5.023438 27.035156 5.101562 26.929688 5.101562 C 26.90625 5.101562 26.851562 5.09375 26.769531 5.074219 C 26.691406 5.054688 26.617188 5.046875 26.5625 5.046875 C 26.386719 5.046875 26.242188 5.152344 26.140625 5.363281 L 26.070312 5.363281 C 25.894531 5.363281 25.699219 5.289062 25.480469 5.136719 C 25.265625 4.984375 25.117188 4.90625 25.035156 4.90625 C 24.941406 4.90625 24.847656 4.964844 24.761719 5.074219 C 24.675781 5.183594 24.628906 5.316406 24.628906 5.46875 C 24.628906 5.527344 24.6875 5.675781 24.796875 5.917969 C 24.90625 6.15625 24.964844 6.347656 24.964844 6.488281 C 24.964844 6.628906 24.882812 6.8125 24.726562 7.042969 C 24.570312 7.269531 24.386719 7.421875 24.171875 7.503906 C 24.078125 7.550781 24.015625 7.574219 24.015625 7.574219 C 23.96875 7.574219 23.945312 7.539062 23.945312 7.46875 C 23.945312 7.410156 23.988281 7.320312 24.078125 7.199219 C 24.164062 7.074219 24.210938 6.980469 24.210938 6.910156 C 24.210938 6.835938 24.1875 6.804688 24.140625 6.804688 C 24.058594 6.804688 23.953125 6.816406 23.824219 6.847656 C 23.695312 6.875 23.613281 6.890625 23.578125 6.890625 C 23.402344 6.890625 23.3125 6.8125 23.3125 6.664062 L 23.3125 6.328125 C 23.3125 6.117188 23.449219 5.894531 23.71875 5.664062 C 24.03125 5.390625 24.226562 5.152344 24.296875 4.941406 L 24.101562 4.890625 C 22.464844 5.230469 21.121094 5.855469 20.066406 6.769531 C 19.457031 7.292969 19.171875 7.558594 19.171875 7.558594 C 19.113281 7.558594 19.082031 7.523438 19.082031 7.453125 C 19.082031 7.289062 19.226562 7.042969 19.515625 6.714844 C 19.800781 6.386719 19.960938 6.136719 19.996094 5.960938 L 19.90625 5.910156 L 19.679688 6.03125 C 19.210938 6.441406 18.742188 6.980469 18.277344 7.644531 C 17.9375 8.125 17.695312 8.367188 17.558594 8.367188 C 17.207031 8.367188 17.03125 8.144531 17.03125 7.699219 C 17.03125 7.558594 17.082031 7.398438 17.1875 7.222656 L 17.207031 7.066406 C 16.761719 7.664062 16.453125 7.960938 16.277344 7.960938 L 16.1875 7.960938 C 16.046875 7.960938 15.953125 8.007812 15.910156 8.101562 C 16.023438 8.207031 16.082031 8.3125 16.082031 8.417969 C 16.082031 8.546875 16.027344 8.664062 15.917969 8.769531 C 15.804688 8.875 15.671875 8.925781 15.519531 8.925781 C 15.289062 8.925781 15.058594 8.824219 14.828125 8.621094 Z M 14.828125 8.621094 " fill-opacity="1" fill-rule="nonzero"/><path fill="#c9a84c" d="M 28.785156 5.289062 C 28.382812 5.289062 28.054688 4.957031 28.054688 4.554688 C 28.054688 4.152344 28.382812 3.824219 28.785156 3.824219 L 85.339844 3.824219 C 85.746094 3.824219 86.070312 4.152344 86.070312 4.554688 C 86.070312 4.957031 85.746094 5.289062 85.339844 5.289062 Z M 28.785156 5.289062 " fill-opacity="1" fill-rule="nonzero"/><path fill="#c9a84c" d="M 212.84375 6.3125 C 212.757812 6.3125 212.679688 6.277344 212.597656 6.214844 C 212.515625 6.152344 212.472656 6.082031 212.472656 6.011719 C 212.472656 5.945312 212.535156 5.757812 212.648438 5.460938 C 212.765625 5.160156 212.828125 4.917969 212.828125 4.734375 C 212.828125 4.566406 212.765625 4.351562 212.640625 4.082031 C 212.519531 3.8125 212.457031 3.644531 212.457031 3.570312 C 212.457031 3.46875 212.589844 3.375 212.859375 3.292969 C 213.09375 3.316406 213.296875 3.488281 213.464844 3.808594 C 213.636719 4.132812 213.71875 4.527344 213.71875 4.996094 C 213.71875 5.335938 213.625 5.640625 213.429688 5.910156 C 213.238281 6.179688 213.042969 6.3125 212.84375 6.3125 Z M 209.351562 8.925781 C 209.199219 8.925781 209.066406 8.875 208.953125 8.769531 C 208.84375 8.664062 208.789062 8.546875 208.789062 8.417969 C 208.789062 8.3125 208.847656 8.207031 208.960938 8.101562 C 208.914062 8.007812 208.824219 7.960938 208.683594 7.960938 L 208.59375 7.960938 C 208.417969 7.960938 208.109375 7.664062 207.664062 7.066406 L 207.679688 7.222656 C 207.789062 7.398438 207.839844 7.558594 207.839844 7.699219 C 207.839844 8.144531 207.664062 8.367188 207.3125 8.367188 C 207.171875 8.367188 206.933594 8.125 206.59375 7.644531 C 206.125 6.980469 205.65625 6.441406 205.1875 6.03125 L 204.960938 5.910156 L 204.875 5.960938 C 204.910156 6.136719 205.070312 6.386719 205.355469 6.714844 C 205.644531 7.042969 205.785156 7.289062 205.785156 7.453125 C 205.785156 7.523438 205.757812 7.558594 205.699219 7.558594 C 205.699219 7.558594 205.414062 7.292969 204.804688 6.769531 C 203.75 5.855469 202.40625 5.230469 200.769531 4.890625 L 200.574219 4.941406 C 200.644531 5.152344 200.835938 5.390625 201.152344 5.664062 C 201.421875 5.894531 201.558594 6.117188 201.558594 6.328125 L 201.558594 6.664062 C 201.558594 6.8125 201.46875 6.890625 201.292969 6.890625 C 201.257812 6.890625 201.175781 6.875 201.046875 6.847656 C 200.917969 6.816406 200.8125 6.804688 200.734375 6.804688 C 200.683594 6.804688 200.660156 6.835938 200.660156 6.910156 C 200.660156 6.980469 200.707031 7.074219 200.792969 7.199219 C 200.882812 7.320312 200.925781 7.410156 200.925781 7.46875 C 200.925781 7.539062 200.902344 7.574219 200.855469 7.574219 C 200.855469 7.574219 200.792969 7.550781 200.699219 7.503906 C 200.484375 7.421875 200.300781 7.269531 200.144531 7.042969 C 199.984375 6.8125 199.90625 6.628906 199.90625 6.488281 C 199.90625 6.347656 199.964844 6.15625 200.074219 5.917969 C 200.183594 5.675781 200.238281 5.527344 200.238281 5.46875 C 200.238281 5.316406 200.195312 5.183594 200.109375 5.074219 C 200.023438 4.964844 199.929688 4.90625 199.835938 4.90625 C 199.753906 4.90625 199.605469 4.984375 199.390625 5.136719 C 199.171875 5.289062 198.976562 5.363281 198.800781 5.363281 L 198.730469 5.363281 C 198.625 5.152344 198.484375 5.046875 198.308594 5.046875 C 198.253906 5.046875 198.179688 5.054688 198.097656 5.074219 C 198.019531 5.09375 197.964844 5.101562 197.941406 5.101562 C 197.835938 5.101562 197.785156 5.023438 197.785156 4.875 C 197.785156 4.742188 197.824219 4.597656 197.90625 4.433594 C 197.988281 4.269531 198.058594 4.1875 198.117188 4.1875 C 198.128906 4.1875 198.265625 4.234375 198.519531 4.328125 C 198.617188 4.222656 198.703125 4.121094 198.792969 4.019531 C 198.878906 3.921875 198.96875 3.871094 199.066406 3.871094 C 199.144531 3.871094 199.304688 3.941406 199.539062 4.082031 C 199.773438 4.222656 199.917969 4.292969 199.976562 4.292969 C 200.175781 4.292969 200.277344 4.09375 200.277344 3.695312 C 200.277344 3.648438 200.214844 3.507812 200.089844 3.265625 C 199.96875 3.027344 199.90625 2.84375 199.90625 2.714844 C 199.90625 2.574219 200.007812 2.390625 200.214844 2.167969 C 200.417969 1.949219 200.578125 1.835938 200.699219 1.835938 C 200.71875 1.835938 200.757812 1.847656 200.800781 1.871094 C 200.769531 1.917969 200.714844 2.011719 200.644531 2.152344 L 200.574219 2.34375 L 200.714844 2.414062 C 201.183594 2.449219 201.414062 2.613281 201.414062 2.90625 C 201.414062 3.222656 201.3125 3.496094 201.109375 3.722656 C 200.90625 3.953125 200.800781 4.09375 200.800781 4.152344 C 200.800781 4.339844 200.972656 4.433594 201.3125 4.433594 C 202.398438 4.433594 203.859375 3.820312 205.699219 2.589844 L 205.820312 2.554688 C 205.902344 2.566406 205.945312 2.621094 205.945312 2.714844 C 205.945312 2.855469 205.804688 2.996094 205.523438 3.144531 C 205.242188 3.289062 205.089844 3.425781 205.066406 3.554688 C 205.089844 3.578125 205.109375 3.59375 205.121094 3.59375 C 205.539062 3.59375 205.914062 3.410156 206.242188 3.046875 C 206.371094 2.90625 206.605469 2.597656 206.945312 2.117188 C 207.144531 1.835938 207.308594 1.695312 207.4375 1.695312 C 207.671875 1.695312 207.894531 1.898438 208.105469 2.308594 C 208.359375 2.242188 208.53125 2.101562 208.613281 1.898438 C 208.695312 1.695312 208.769531 1.5 208.839844 1.320312 C 208.910156 1.136719 209.042969 1.046875 209.246094 1.046875 C 209.464844 1.046875 209.671875 1.140625 209.859375 1.328125 C 210.046875 1.515625 210.140625 1.71875 210.140625 1.941406 C 210.140625 2.503906 209.355469 3.140625 207.789062 3.855469 C 207.484375 3.996094 206.996094 4.105469 206.324219 4.1875 C 205.648438 4.269531 205.167969 4.386719 204.875 4.539062 C 205.070312 4.609375 205.25 4.644531 205.402344 4.644531 C 205.414062 4.644531 205.441406 4.644531 205.488281 4.644531 C 205.546875 4.632812 205.59375 4.628906 205.628906 4.628906 C 205.640625 4.628906 205.667969 4.632812 205.714844 4.644531 C 205.753906 4.644531 205.785156 4.644531 205.820312 4.644531 C 207.085938 4.644531 208.335938 4.488281 209.578125 4.179688 C 210.816406 3.871094 211.433594 3.714844 211.421875 3.714844 C 211.46875 3.714844 211.515625 3.726562 211.5625 3.75 C 211.609375 3.773438 211.679688 3.871094 211.769531 4.046875 C 212.289062 4.09375 212.542969 4.304688 212.542969 4.679688 C 212.542969 5.03125 212.367188 5.335938 212.015625 5.59375 C 212.027344 5.605469 212.050781 5.628906 212.078125 5.671875 C 212.109375 5.710938 212.132812 5.746094 212.15625 5.765625 C 212.089844 5.945312 211.945312 6.03125 211.738281 6.03125 C 211.652344 6.03125 211.386719 5.953125 210.929688 5.804688 C 210.34375 5.605469 209.835938 5.453125 209.402344 5.347656 C 209.203125 5.300781 208.511719 5.234375 207.332031 5.152344 C 205.808594 5.046875 205.042969 4.996094 205.03125 4.996094 C 204.785156 4.996094 204.5625 5.019531 204.367188 5.066406 C 204.679688 5.207031 205.214844 5.347656 205.960938 5.488281 C 206.792969 5.625 207.425781 5.777344 207.859375 5.945312 C 208.617188 6.222656 209.25 6.589844 209.753906 7.050781 C 210.175781 7.421875 210.386719 7.734375 210.386719 7.980469 C 210.386719 8.199219 210.273438 8.414062 210.042969 8.621094 C 209.8125 8.824219 209.582031 8.925781 209.351562 8.925781 Z M 209.351562 8.925781 " fill-opacity="1" fill-rule="nonzero"/><g clip-path="url(#9bd33fbb9b)"><path fill="#c9a84c" d="M 138.03125 3.609375 C 137.414062 0.0234375 130.808594 0.015625 127.824219 0.265625 C 122.652344 0.699219 117.898438 2.679688 114.792969 7.03125 C 113.601562 8.699219 112.878906 10.308594 112.433594 11.96875 C 111.992188 10.308594 111.269531 8.699219 110.078125 7.03125 C 106.972656 2.679688 102.214844 0.699219 97.046875 0.265625 C 94.0625 0.015625 87.457031 0.0234375 86.839844 3.609375 C 86.253906 7.007812 90.769531 7.90625 94.402344 7.679688 C 95.019531 7.636719 95.894531 7.042969 94.894531 7.058594 C 92.867188 7.097656 91.609375 7.046875 90.457031 5.304688 C 89.421875 3.730469 90.960938 1.949219 92.050781 1.484375 C 96.984375 -0.617188 103.242188 1.742188 107.007812 5.363281 C 107.972656 6.289062 108.730469 7.246094 109.339844 8.238281 C 106.40625 5.75 101.816406 5.152344 98.402344 7.996094 C 97.949219 8.375 97.902344 9.003906 98.539062 9.347656 C 99.074219 9.628906 100.34375 10.101562 100.941406 9.480469 C 104.707031 5.570312 109.261719 7.988281 110.554688 12.449219 C 111.855469 16.941406 106.816406 24.246094 102.382812 18.476562 C 102.105469 18.121094 100.769531 18.167969 100.960938 18.421875 C 104.277344 22.730469 109.824219 21.355469 111.628906 17.203125 C 111.65625 17.957031 111.667969 18.726562 111.667969 19.515625 L 111.667969 19.558594 C 111.667969 19.667969 111.742188 19.792969 111.894531 19.925781 C 112.046875 20.058594 112.125 20.15625 112.125 20.207031 C 112.125 20.261719 112.066406 20.320312 111.957031 20.375 C 111.84375 20.429688 111.714844 20.457031 111.5625 20.457031 C 111.503906 20.457031 111.355469 20.421875 111.113281 20.351562 C 110.875 20.28125 110.683594 20.246094 110.542969 20.246094 C 110.402344 20.246094 110.21875 20.296875 109.988281 20.398438 C 109.761719 20.496094 109.609375 20.609375 109.523438 20.738281 C 109.480469 20.800781 109.457031 20.839844 109.457031 20.839844 C 109.457031 20.867188 109.492188 20.882812 109.5625 20.882812 C 109.617188 20.882812 109.710938 20.859375 109.832031 20.800781 C 109.957031 20.746094 110.050781 20.71875 110.121094 20.71875 C 110.191406 20.71875 110.226562 20.734375 110.226562 20.761719 C 110.226562 20.8125 110.210938 20.878906 110.183594 20.960938 C 110.15625 21.039062 110.140625 21.089844 110.140625 21.113281 C 110.140625 21.222656 110.214844 21.277344 110.367188 21.277344 L 110.703125 21.277344 C 110.910156 21.277344 111.136719 21.195312 111.367188 21.027344 C 111.636719 20.828125 111.878906 20.710938 112.089844 20.664062 L 112.140625 20.785156 C 111.800781 21.804688 111.175781 22.644531 110.261719 23.300781 C 109.738281 23.679688 109.472656 23.859375 109.472656 23.859375 C 109.472656 23.894531 109.507812 23.914062 109.578125 23.914062 C 109.742188 23.914062 109.988281 23.824219 110.316406 23.644531 C 110.644531 23.464844 110.894531 23.367188 111.070312 23.34375 L 111.121094 23.398438 L 111 23.542969 C 110.589844 23.835938 110.050781 24.125 109.386719 24.414062 C 108.90625 24.628906 108.664062 24.777344 108.664062 24.863281 C 108.664062 25.082031 108.886719 25.195312 109.332031 25.195312 C 109.472656 25.195312 109.628906 25.160156 109.808594 25.09375 L 109.964844 25.082031 C 109.367188 25.359375 109.070312 25.554688 109.070312 25.664062 L 109.070312 25.71875 C 109.070312 25.804688 109.023438 25.863281 108.929688 25.894531 C 108.824219 25.820312 108.71875 25.78125 108.613281 25.78125 C 108.484375 25.78125 108.367188 25.820312 108.261719 25.886719 C 108.15625 25.957031 108.105469 26.039062 108.105469 26.132812 C 108.105469 26.277344 108.207031 26.421875 108.410156 26.5625 C 108.617188 26.707031 108.832031 26.777344 109.050781 26.777344 C 109.296875 26.777344 109.609375 26.648438 109.980469 26.386719 C 110.4375 26.070312 110.808594 25.675781 111.085938 25.207031 C 111.253906 24.933594 111.402344 24.539062 111.542969 24.023438 C 111.683594 23.554688 111.824219 23.226562 111.964844 23.027344 C 112.011719 23.152344 112.035156 23.289062 112.035156 23.441406 C 112.035156 23.449219 111.984375 23.929688 111.878906 24.875 C 111.796875 25.609375 111.730469 26.042969 111.683594 26.164062 C 111.578125 26.4375 111.425781 26.753906 111.226562 27.117188 C 111.074219 27.402344 111 27.570312 111 27.621094 C 111 27.75 111.085938 27.839844 111.265625 27.882812 C 111.289062 27.867188 111.320312 27.851562 111.359375 27.832031 C 111.402344 27.816406 111.425781 27.804688 111.4375 27.796875 C 111.695312 28.015625 112 28.125 112.351562 28.125 C 112.726562 28.125 112.9375 27.960938 112.984375 27.640625 C 113.160156 27.585938 113.257812 27.542969 113.28125 27.511719 C 113.304688 27.480469 113.316406 27.453125 113.316406 27.421875 C 113.316406 27.429688 113.160156 27.046875 112.851562 26.277344 C 112.542969 25.503906 112.386719 24.722656 112.386719 23.933594 L 112.386719 23.867188 C 112.398438 23.839844 112.40625 23.824219 112.40625 23.816406 C 112.40625 23.792969 112.398438 23.761719 112.386719 23.726562 L 112.386719 23.671875 C 112.386719 23.578125 112.421875 23.46875 112.492188 23.34375 C 112.644531 23.527344 112.761719 23.828125 112.84375 24.246094 C 112.921875 24.667969 113.035156 24.96875 113.175781 25.160156 C 113.890625 26.136719 114.527344 26.625 115.089844 26.625 C 115.3125 26.625 115.515625 26.566406 115.703125 26.449219 C 115.890625 26.332031 115.984375 26.207031 115.984375 26.066406 C 115.984375 25.941406 115.894531 25.859375 115.710938 25.816406 C 115.53125 25.773438 115.335938 25.722656 115.132812 25.671875 C 114.929688 25.621094 114.789062 25.515625 114.71875 25.355469 C 115.128906 25.226562 115.335938 25.085938 115.335938 24.941406 C 115.335938 24.859375 115.195312 24.757812 114.914062 24.632812 C 114.433594 24.421875 114.125 24.277344 113.984375 24.199219 C 113.621094 23.996094 113.4375 23.757812 113.4375 23.496094 C 113.4375 23.488281 113.453125 23.480469 113.472656 23.464844 C 113.601562 23.480469 113.742188 23.574219 113.886719 23.75 C 114.035156 23.925781 114.175781 24.011719 114.316406 24.011719 C 114.410156 24.011719 114.464844 23.988281 114.476562 23.933594 L 114.441406 23.859375 C 113.210938 22.714844 112.597656 21.804688 112.597656 21.121094 C 112.597656 20.910156 112.691406 20.808594 112.878906 20.808594 C 112.933594 20.808594 113.078125 20.871094 113.308594 20.996094 C 113.535156 21.125 113.808594 21.191406 114.125 21.191406 C 114.417969 21.191406 114.582031 21.042969 114.613281 20.75 L 114.6875 20.664062 L 114.875 20.710938 C 115.019531 20.75 115.109375 20.785156 115.160156 20.808594 C 115.183594 20.777344 115.195312 20.753906 115.195312 20.738281 C 115.195312 20.667969 115.082031 20.566406 114.859375 20.441406 C 114.640625 20.3125 114.457031 20.246094 114.316406 20.246094 C 114.1875 20.246094 114.003906 20.285156 113.761719 20.363281 C 113.523438 20.441406 113.382812 20.480469 113.335938 20.480469 C 112.933594 20.480469 112.738281 20.417969 112.738281 20.292969 C 112.738281 20.257812 112.808594 20.164062 112.949219 20.019531 C 113.089844 19.875 113.160156 19.773438 113.160156 19.722656 C 113.160156 19.707031 113.144531 19.691406 113.136719 19.675781 C 113.175781 19.640625 113.199219 19.597656 113.199219 19.546875 C 113.199219 18.75 113.214844 17.96875 113.242188 17.207031 C 115.046875 21.355469 120.59375 22.730469 123.90625 18.421875 C 124.101562 18.167969 122.761719 18.121094 122.488281 18.476562 C 118.054688 24.246094 113.015625 16.941406 114.316406 12.449219 C 115.609375 7.988281 120.164062 5.570312 123.929688 9.480469 C 124.523438 10.101562 125.796875 9.628906 126.332031 9.347656 C 126.96875 9.003906 126.921875 8.375 126.46875 7.996094 C 123.054688 5.15625 118.464844 5.75 115.53125 8.238281 C 116.140625 7.246094 116.898438 6.285156 117.863281 5.363281 C 121.625 1.742188 127.882812 -0.617188 132.820312 1.484375 C 133.910156 1.949219 135.449219 3.730469 134.410156 5.304688 C 133.261719 7.046875 132 7.097656 129.976562 7.058594 C 128.976562 7.042969 129.851562 7.636719 130.464844 7.679688 C 134.101562 7.90625 138.613281 7.007812 138.03125 3.609375 Z M 113.457031 28.070312 C 113.386719 28.070312 113.21875 28.105469 112.949219 28.183594 C 112.679688 28.261719 112.460938 28.296875 112.296875 28.296875 C 112.113281 28.296875 111.871094 28.261719 111.570312 28.191406 C 111.273438 28.117188 111.085938 28.082031 111.019531 28.082031 C 110.949219 28.082031 110.878906 28.105469 110.816406 28.15625 C 110.75 28.207031 110.71875 28.257812 110.71875 28.3125 C 110.71875 28.433594 110.851562 28.554688 111.121094 28.675781 C 111.390625 28.796875 111.695312 28.855469 112.035156 28.855469 C 112.503906 28.855469 112.898438 28.804688 113.222656 28.699219 C 113.542969 28.589844 113.714844 28.46875 113.738281 28.320312 C 113.65625 28.152344 113.5625 28.070312 113.457031 28.070312 Z M 113.457031 28.070312 " fill-opacity="1" fill-rule="nonzero"/></g><path fill="#c9a84c" d="M 196.085938 5.289062 C 196.488281 5.289062 196.816406 4.957031 196.816406 4.554688 C 196.816406 4.152344 196.488281 3.824219 196.085938 3.824219 L 139.53125 3.824219 C 139.128906 3.824219 138.796875 4.152344 138.796875 4.554688 C 138.796875 4.957031 139.128906 5.289062 139.53125 5.289062 Z M 196.085938 5.289062 " fill-opacity="1" fill-rule="nonzero"/><g clip-path="url(#cd66602d20)"><path fill="#c9a84c" d="M 211.882812 5.9375 C 211.800781 5.9375 211.71875 5.902344 211.636719 5.839844 C 211.554688 5.777344 211.515625 5.707031 211.515625 5.636719 C 211.515625 5.570312 211.574219 5.382812 211.6875 5.085938 C 211.808594 4.785156 211.867188 4.542969 211.867188 4.355469 C 211.867188 4.191406 211.804688 3.976562 211.683594 3.707031 C 211.558594 3.4375 211.496094 3.269531 211.496094 3.195312 C 211.496094 3.09375 211.632812 3 211.898438 2.917969 C 212.132812 2.941406 212.335938 3.113281 212.503906 3.433594 C 212.675781 3.757812 212.757812 4.152344 212.757812 4.621094 C 212.757812 4.960938 212.664062 5.261719 212.472656 5.53125 C 212.277344 5.800781 212.082031 5.9375 211.882812 5.9375 Z M 208.390625 8.550781 C 208.238281 8.550781 208.105469 8.5 207.996094 8.394531 C 207.882812 8.289062 207.828125 8.171875 207.828125 8.042969 C 207.828125 7.9375 207.886719 7.832031 208.003906 7.726562 C 207.957031 7.632812 207.863281 7.585938 207.722656 7.585938 L 207.632812 7.585938 C 207.457031 7.585938 207.148438 7.289062 206.703125 6.691406 L 206.722656 6.847656 C 206.828125 7.023438 206.878906 7.183594 206.878906 7.324219 C 206.878906 7.765625 206.703125 7.992188 206.351562 7.992188 C 206.214844 7.992188 205.972656 7.75 205.632812 7.269531 C 205.167969 6.601562 204.699219 6.066406 204.230469 5.65625 L 204.003906 5.53125 L 203.914062 5.585938 C 203.949219 5.761719 204.109375 6.011719 204.398438 6.339844 C 204.683594 6.667969 204.828125 6.914062 204.828125 7.078125 C 204.828125 7.148438 204.796875 7.183594 204.738281 7.183594 C 204.738281 7.183594 204.453125 6.917969 203.84375 6.394531 C 202.792969 5.480469 201.445312 4.855469 199.808594 4.515625 L 199.613281 4.566406 C 199.683594 4.777344 199.878906 5.019531 200.195312 5.285156 C 200.460938 5.519531 200.597656 5.742188 200.597656 5.953125 L 200.597656 6.289062 C 200.597656 6.4375 200.507812 6.515625 200.332031 6.515625 C 200.296875 6.515625 200.214844 6.5 200.085938 6.472656 C 199.960938 6.441406 199.851562 6.429688 199.773438 6.429688 C 199.722656 6.429688 199.703125 6.460938 199.703125 6.535156 C 199.703125 6.601562 199.746094 6.699219 199.832031 6.820312 C 199.921875 6.945312 199.964844 7.039062 199.964844 7.09375 C 199.964844 7.164062 199.941406 7.199219 199.894531 7.199219 C 199.894531 7.199219 199.828125 7.175781 199.738281 7.128906 C 199.527344 7.046875 199.339844 6.894531 199.183594 6.664062 C 199.027344 6.4375 198.949219 6.253906 198.949219 6.109375 C 198.949219 5.972656 199.003906 5.78125 199.113281 5.542969 C 199.222656 5.300781 199.28125 5.152344 199.28125 5.09375 C 199.28125 4.941406 199.234375 4.8125 199.148438 4.699219 C 199.0625 4.589844 198.96875 4.53125 198.875 4.53125 C 198.792969 4.53125 198.644531 4.609375 198.429688 4.761719 C 198.214844 4.910156 198.015625 4.988281 197.84375 4.988281 L 197.769531 4.988281 C 197.667969 4.777344 197.523438 4.671875 197.347656 4.671875 C 197.292969 4.671875 197.21875 4.679688 197.140625 4.699219 C 197.058594 4.71875 197.003906 4.726562 196.980469 4.726562 C 196.875 4.726562 196.824219 4.648438 196.824219 4.496094 C 196.824219 4.367188 196.863281 4.222656 196.945312 4.058594 C 197.027344 3.894531 197.097656 3.8125 197.15625 3.8125 C 197.167969 3.8125 197.304688 3.859375 197.5625 3.953125 C 197.65625 3.847656 197.746094 3.746094 197.832031 3.644531 C 197.921875 3.546875 198.011719 3.496094 198.105469 3.496094 C 198.1875 3.496094 198.34375 3.566406 198.578125 3.707031 C 198.8125 3.847656 198.957031 3.917969 199.015625 3.917969 C 199.214844 3.917969 199.316406 3.71875 199.316406 3.320312 C 199.316406 3.273438 199.253906 3.132812 199.132812 2.890625 C 199.007812 2.652344 198.949219 2.464844 198.949219 2.335938 C 198.949219 2.195312 199.046875 2.015625 199.253906 1.796875 C 199.460938 1.570312 199.621094 1.460938 199.738281 1.460938 C 199.761719 1.460938 199.796875 1.472656 199.839844 1.496094 C 199.808594 1.542969 199.753906 1.636719 199.683594 1.777344 L 199.613281 1.96875 L 199.753906 2.039062 C 200.222656 2.074219 200.457031 2.238281 200.457031 2.53125 C 200.457031 2.847656 200.355469 3.121094 200.148438 3.347656 C 199.945312 3.574219 199.839844 3.71875 199.839844 3.777344 C 199.839844 3.964844 200.011719 4.058594 200.351562 4.058594 C 201.441406 4.058594 202.902344 3.441406 204.738281 2.214844 L 204.863281 2.179688 C 204.945312 2.191406 204.984375 2.246094 204.984375 2.335938 C 204.984375 2.480469 204.84375 2.621094 204.5625 2.769531 C 204.28125 2.914062 204.132812 3.050781 204.105469 3.179688 C 204.132812 3.203125 204.148438 3.214844 204.160156 3.214844 C 204.582031 3.214844 204.957031 3.035156 205.285156 2.671875 C 205.414062 2.53125 205.644531 2.222656 205.984375 1.742188 C 206.183594 1.460938 206.347656 1.320312 206.476562 1.320312 C 206.710938 1.320312 206.933594 1.527344 207.144531 1.933594 C 207.398438 1.863281 207.570312 1.726562 207.652344 1.523438 C 207.734375 1.316406 207.8125 1.125 207.878906 0.941406 C 207.949219 0.761719 208.082031 0.671875 208.285156 0.671875 C 208.503906 0.671875 208.710938 0.761719 208.898438 0.953125 C 209.085938 1.140625 209.179688 1.34375 209.179688 1.566406 C 209.179688 2.128906 208.398438 2.765625 206.828125 3.480469 C 206.523438 3.621094 206.035156 3.730469 205.363281 3.8125 C 204.691406 3.894531 204.207031 4.011719 203.914062 4.164062 C 204.113281 4.234375 204.289062 4.269531 204.441406 4.269531 C 204.453125 4.269531 204.480469 4.269531 204.527344 4.269531 C 204.585938 4.257812 204.632812 4.25 204.667969 4.25 C 204.679688 4.25 204.710938 4.257812 204.757812 4.269531 C 204.792969 4.269531 204.828125 4.269531 204.863281 4.269531 C 206.125 4.269531 207.378906 4.113281 208.617188 3.804688 C 209.859375 3.496094 210.472656 3.339844 210.460938 3.339844 C 210.507812 3.339844 210.554688 3.351562 210.601562 3.375 C 210.648438 3.398438 210.71875 3.496094 210.8125 3.671875 C 211.328125 3.71875 211.585938 3.929688 211.585938 4.304688 C 211.585938 4.652344 211.410156 4.960938 211.058594 5.21875 C 211.070312 5.230469 211.089844 5.253906 211.117188 5.296875 C 211.148438 5.335938 211.171875 5.367188 211.199219 5.390625 C 211.128906 5.570312 210.988281 5.65625 210.777344 5.65625 C 210.695312 5.65625 210.425781 5.578125 209.96875 5.429688 C 209.386719 5.230469 208.875 5.078125 208.441406 4.972656 C 208.242188 4.925781 207.554688 4.859375 206.371094 4.777344 C 204.847656 4.671875 204.085938 4.621094 204.074219 4.621094 C 203.828125 4.621094 203.605469 4.644531 203.40625 4.691406 C 203.71875 4.832031 204.253906 4.972656 205.003906 5.113281 C 205.832031 5.25 206.464844 5.402344 206.898438 5.570312 C 207.660156 5.847656 208.289062 6.214844 208.792969 6.671875 C 209.214844 7.046875 209.425781 7.359375 209.425781 7.605469 C 209.425781 7.824219 209.3125 8.039062 209.082031 8.246094 C 208.855469 8.449219 208.621094 8.550781 208.390625 8.550781 Z M 208.390625 8.550781 " fill-opacity="1" fill-rule="nonzero"/></g><path fill="#c9a84c" d="M 11.441406 6.082031 C 11.246094 5.8125 11.152344 5.507812 11.152344 5.167969 C 11.152344 4.699219 11.234375 4.304688 11.40625 3.984375 C 11.574219 3.660156 11.777344 3.488281 12.011719 3.464844 C 12.28125 3.546875 12.414062 3.640625 12.414062 3.746094 C 12.414062 3.816406 12.351562 3.984375 12.230469 4.257812 C 12.105469 4.523438 12.046875 4.742188 12.046875 4.90625 C 12.046875 5.089844 12.105469 5.332031 12.222656 5.636719 C 12.335938 5.929688 12.398438 6.117188 12.398438 6.183594 C 12.398438 6.257812 12.355469 6.324219 12.273438 6.386719 C 12.191406 6.453125 12.109375 6.484375 12.027344 6.484375 C 11.828125 6.484375 11.632812 6.351562 11.441406 6.082031 Z M 14.828125 8.792969 C 14.597656 8.589844 14.484375 8.375 14.484375 8.152344 C 14.484375 7.90625 14.695312 7.597656 15.117188 7.222656 C 15.621094 6.765625 16.25 6.398438 17.011719 6.117188 C 17.445312 5.949219 18.078125 5.800781 18.910156 5.660156 C 19.65625 5.519531 20.1875 5.378906 20.503906 5.238281 C 20.308594 5.191406 20.082031 5.167969 19.839844 5.167969 C 19.828125 5.167969 19.0625 5.222656 17.539062 5.324219 C 16.359375 5.410156 15.667969 5.472656 15.46875 5.519531 C 15.035156 5.625 14.527344 5.777344 13.941406 5.976562 C 13.484375 6.128906 13.214844 6.203125 13.132812 6.203125 C 12.925781 6.203125 12.78125 6.117188 12.710938 5.9375 C 12.738281 5.917969 12.761719 5.886719 12.792969 5.84375 C 12.820312 5.800781 12.84375 5.777344 12.851562 5.765625 C 12.5 5.507812 12.328125 5.203125 12.328125 4.851562 C 12.328125 4.476562 12.582031 4.265625 13.097656 4.21875 C 13.191406 4.046875 13.261719 3.945312 13.308594 3.925781 C 13.355469 3.898438 13.402344 3.886719 13.449219 3.886719 C 13.4375 3.886719 14.050781 4.042969 15.292969 4.351562 C 16.53125 4.664062 17.785156 4.816406 19.046875 4.816406 C 19.082031 4.816406 19.117188 4.816406 19.152344 4.816406 C 19.199219 4.804688 19.230469 4.800781 19.242188 4.800781 C 19.277344 4.800781 19.324219 4.804688 19.382812 4.816406 C 19.429688 4.816406 19.457031 4.816406 19.46875 4.816406 C 19.621094 4.816406 19.796875 4.78125 19.996094 4.710938 C 19.703125 4.558594 19.222656 4.441406 18.550781 4.359375 C 17.875 4.28125 17.386719 4.167969 17.082031 4.027344 C 15.515625 3.316406 14.730469 2.675781 14.730469 2.113281 C 14.730469 1.890625 14.824219 1.6875 15.011719 1.5 C 15.199219 1.3125 15.40625 1.21875 15.625 1.21875 C 15.828125 1.21875 15.960938 1.308594 16.03125 1.492188 C 16.101562 1.671875 16.175781 1.867188 16.257812 2.070312 C 16.339844 2.273438 16.511719 2.414062 16.765625 2.484375 C 16.976562 2.074219 17.199219 1.871094 17.433594 1.871094 C 17.5625 1.871094 17.726562 2.007812 17.925781 2.292969 C 18.265625 2.769531 18.5 3.078125 18.628906 3.21875 C 18.957031 3.582031 19.328125 3.765625 19.75 3.765625 C 19.761719 3.765625 19.777344 3.753906 19.804688 3.730469 C 19.777344 3.601562 19.628906 3.464844 19.347656 3.316406 C 19.066406 3.171875 18.925781 3.027344 18.925781 2.886719 C 18.925781 2.792969 18.964844 2.742188 19.046875 2.730469 L 19.171875 2.761719 C 21.007812 3.992188 22.46875 4.609375 23.558594 4.609375 C 23.898438 4.609375 24.070312 4.511719 24.070312 4.324219 C 24.070312 4.265625 23.964844 4.125 23.761719 3.894531 C 23.558594 3.667969 23.453125 3.394531 23.453125 3.078125 C 23.453125 2.789062 23.6875 2.625 24.15625 2.589844 L 24.296875 2.515625 L 24.226562 2.328125 C 24.15625 2.183594 24.101562 2.09375 24.070312 2.042969 C 24.113281 2.019531 24.152344 2.007812 24.171875 2.007812 C 24.289062 2.007812 24.453125 2.121094 24.65625 2.34375 C 24.863281 2.5625 24.964844 2.746094 24.964844 2.886719 C 24.964844 3.015625 24.902344 3.199219 24.777344 3.441406 C 24.65625 3.679688 24.59375 3.824219 24.59375 3.867188 C 24.59375 4.265625 24.695312 4.464844 24.894531 4.464844 C 24.953125 4.464844 25.097656 4.398438 25.332031 4.257812 C 25.566406 4.113281 25.726562 4.046875 25.804688 4.046875 C 25.898438 4.046875 25.988281 4.09375 26.078125 4.195312 C 26.164062 4.292969 26.257812 4.398438 26.351562 4.5 C 26.605469 4.410156 26.742188 4.359375 26.753906 4.359375 C 26.8125 4.359375 26.882812 4.441406 26.964844 4.609375 C 27.046875 4.769531 27.085938 4.917969 27.085938 5.046875 C 27.085938 5.195312 27.035156 5.273438 26.929688 5.273438 C 26.90625 5.273438 26.851562 5.265625 26.769531 5.246094 C 26.691406 5.230469 26.617188 5.222656 26.5625 5.222656 C 26.386719 5.222656 26.242188 5.324219 26.140625 5.539062 L 26.070312 5.539062 C 25.894531 5.539062 25.699219 5.460938 25.480469 5.308594 C 25.265625 5.15625 25.117188 5.078125 25.035156 5.078125 C 24.941406 5.078125 24.847656 5.136719 24.761719 5.246094 C 24.675781 5.359375 24.628906 5.488281 24.628906 5.644531 C 24.628906 5.699219 24.6875 5.851562 24.796875 6.089844 C 24.90625 6.328125 24.964844 6.519531 24.964844 6.660156 C 24.964844 6.800781 24.882812 6.984375 24.726562 7.214844 C 24.570312 7.441406 24.386719 7.597656 24.171875 7.675781 C 24.078125 7.726562 24.015625 7.746094 24.015625 7.746094 C 23.96875 7.746094 23.945312 7.714844 23.945312 7.640625 C 23.945312 7.585938 23.988281 7.496094 24.078125 7.371094 C 24.164062 7.25 24.210938 7.152344 24.210938 7.082031 C 24.210938 7.011719 24.1875 6.976562 24.140625 6.976562 C 24.058594 6.976562 23.953125 6.992188 23.824219 7.019531 C 23.695312 7.046875 23.613281 7.0625 23.578125 7.0625 C 23.402344 7.0625 23.3125 6.988281 23.3125 6.835938 L 23.3125 6.503906 C 23.3125 6.289062 23.449219 6.070312 23.71875 5.835938 C 24.03125 5.566406 24.226562 5.324219 24.296875 5.117188 L 24.101562 5.0625 C 22.464844 5.402344 21.121094 6.027344 20.066406 6.941406 C 19.457031 7.46875 19.171875 7.730469 19.171875 7.730469 C 19.113281 7.730469 19.082031 7.695312 19.082031 7.625 C 19.082031 7.460938 19.226562 7.214844 19.515625 6.886719 C 19.800781 6.5625 19.960938 6.308594 19.996094 6.132812 L 19.90625 6.082031 L 19.679688 6.203125 C 19.210938 6.613281 18.742188 7.152344 18.277344 7.820312 C 17.9375 8.300781 17.695312 8.539062 17.558594 8.539062 C 17.207031 8.539062 17.03125 8.316406 17.03125 7.871094 C 17.03125 7.730469 17.082031 7.574219 17.1875 7.398438 L 17.207031 7.238281 C 16.761719 7.835938 16.453125 8.132812 16.277344 8.132812 L 16.1875 8.132812 C 16.046875 8.132812 15.953125 8.179688 15.910156 8.273438 C 16.023438 8.378906 16.082031 8.484375 16.082031 8.589844 C 16.082031 8.71875 16.027344 8.835938 15.917969 8.941406 C 15.804688 9.046875 15.671875 9.097656 15.519531 9.097656 C 15.289062 9.097656 15.058594 8.996094 14.828125 8.792969 Z M 14.828125 8.792969 " fill-opacity="1" fill-rule="nonzero"/><path fill="#c9a84c" d="M 28.785156 5.460938 C 28.382812 5.460938 28.054688 5.128906 28.054688 4.726562 C 28.054688 4.324219 28.382812 3.996094 28.785156 3.996094 L 85.339844 3.996094 C 85.746094 3.996094 86.070312 4.324219 86.070312 4.726562 C 86.070312 5.128906 85.746094 5.460938 85.339844 5.460938 Z M 28.785156 5.460938 " fill-opacity="1" fill-rule="nonzero"/><path fill="#c9a84c" d="M 212.84375 6.484375 C 212.757812 6.484375 212.679688 6.453125 212.597656 6.386719 C 212.515625 6.324219 212.472656 6.257812 212.472656 6.183594 C 212.472656 6.117188 212.535156 5.929688 212.648438 5.636719 C 212.765625 5.332031 212.828125 5.089844 212.828125 4.90625 C 212.828125 4.742188 212.765625 4.523438 212.640625 4.257812 C 212.519531 3.984375 212.457031 3.816406 212.457031 3.746094 C 212.457031 3.640625 212.589844 3.546875 212.859375 3.464844 C 213.09375 3.488281 213.296875 3.660156 213.464844 3.984375 C 213.636719 4.304688 213.71875 4.699219 213.71875 5.167969 C 213.71875 5.507812 213.625 5.8125 213.429688 6.082031 C 213.238281 6.351562 213.042969 6.484375 212.84375 6.484375 Z M 209.351562 9.097656 C 209.199219 9.097656 209.066406 9.046875 208.953125 8.941406 C 208.84375 8.835938 208.789062 8.71875 208.789062 8.589844 C 208.789062 8.484375 208.847656 8.378906 208.960938 8.273438 C 208.914062 8.179688 208.824219 8.132812 208.683594 8.132812 L 208.59375 8.132812 C 208.417969 8.132812 208.109375 7.835938 207.664062 7.238281 L 207.679688 7.398438 C 207.789062 7.574219 207.839844 7.730469 207.839844 7.871094 C 207.839844 8.316406 207.664062 8.539062 207.3125 8.539062 C 207.171875 8.539062 206.933594 8.300781 206.59375 7.820312 C 206.125 7.152344 205.65625 6.613281 205.1875 6.203125 L 204.960938 6.082031 L 204.875 6.132812 C 204.910156 6.308594 205.070312 6.5625 205.355469 6.886719 C 205.644531 7.214844 205.785156 7.460938 205.785156 7.625 C 205.785156 7.695312 205.757812 7.730469 205.699219 7.730469 C 205.699219 7.730469 205.414062 7.46875 204.804688 6.941406 C 203.75 6.027344 202.40625 5.402344 200.769531 5.0625 L 200.574219 5.117188 C 200.644531 5.324219 200.835938 5.566406 201.152344 5.835938 C 201.421875 6.070312 201.558594 6.289062 201.558594 6.503906 L 201.558594 6.835938 C 201.558594 6.988281 201.46875 7.0625 201.292969 7.0625 C 201.257812 7.0625 201.175781 7.046875 201.046875 7.019531 C 200.917969 6.992188 200.8125 6.976562 200.734375 6.976562 C 200.683594 6.976562 200.660156 7.011719 200.660156 7.082031 C 200.660156 7.152344 200.707031 7.25 200.792969 7.371094 C 200.882812 7.496094 200.925781 7.585938 200.925781 7.640625 C 200.925781 7.714844 200.902344 7.746094 200.855469 7.746094 C 200.855469 7.746094 200.792969 7.726562 200.699219 7.675781 C 200.484375 7.597656 200.300781 7.441406 200.144531 7.214844 C 199.984375 6.984375 199.90625 6.800781 199.90625 6.660156 C 199.90625 6.519531 199.964844 6.328125 200.074219 6.089844 C 200.183594 5.851562 200.238281 5.699219 200.238281 5.644531 C 200.238281 5.488281 200.195312 5.359375 200.109375 5.246094 C 200.023438 5.136719 199.929688 5.082031 199.835938 5.082031 C 199.753906 5.082031 199.605469 5.15625 199.390625 5.308594 C 199.171875 5.460938 198.976562 5.539062 198.800781 5.539062 L 198.730469 5.539062 C 198.625 5.324219 198.484375 5.222656 198.308594 5.222656 C 198.253906 5.222656 198.179688 5.230469 198.097656 5.246094 C 198.019531 5.265625 197.964844 5.273438 197.941406 5.273438 C 197.835938 5.273438 197.785156 5.195312 197.785156 5.046875 C 197.785156 4.917969 197.824219 4.769531 197.90625 4.609375 C 197.988281 4.441406 198.058594 4.359375 198.117188 4.359375 C 198.128906 4.359375 198.265625 4.410156 198.519531 4.5 C 198.617188 4.398438 198.703125 4.292969 198.792969 4.195312 C 198.878906 4.09375 198.96875 4.046875 199.066406 4.046875 C 199.144531 4.046875 199.304688 4.113281 199.539062 4.257812 C 199.773438 4.398438 199.917969 4.464844 199.976562 4.464844 C 200.175781 4.464844 200.277344 4.265625 200.277344 3.867188 C 200.277344 3.824219 200.214844 3.679688 200.089844 3.441406 C 199.96875 3.199219 199.90625 3.015625 199.90625 2.886719 C 199.90625 2.746094 200.007812 2.5625 200.214844 2.34375 C 200.417969 2.121094 200.578125 2.007812 200.699219 2.007812 C 200.71875 2.007812 200.757812 2.019531 200.800781 2.042969 C 200.769531 2.09375 200.714844 2.183594 200.644531 2.328125 L 200.574219 2.515625 L 200.714844 2.589844 C 201.183594 2.625 201.414062 2.789062 201.414062 3.078125 C 201.414062 3.394531 201.3125 3.667969 201.109375 3.894531 C 200.90625 4.125 200.800781 4.265625 200.800781 4.324219 C 200.800781 4.511719 200.972656 4.609375 201.3125 4.609375 C 202.398438 4.609375 203.859375 3.992188 205.699219 2.761719 L 205.820312 2.730469 C 205.902344 2.742188 205.945312 2.792969 205.945312 2.886719 C 205.945312 3.027344 205.804688 3.171875 205.523438 3.316406 C 205.242188 3.464844 205.089844 3.601562 205.066406 3.730469 C 205.089844 3.753906 205.109375 3.765625 205.121094 3.765625 C 205.539062 3.765625 205.914062 3.582031 206.242188 3.21875 C 206.371094 3.078125 206.605469 2.769531 206.945312 2.292969 C 207.144531 2.007812 207.308594 1.871094 207.4375 1.871094 C 207.671875 1.871094 207.894531 2.074219 208.105469 2.484375 C 208.359375 2.414062 208.53125 2.273438 208.613281 2.070312 C 208.695312 1.867188 208.769531 1.671875 208.839844 1.492188 C 208.910156 1.308594 209.042969 1.21875 209.246094 1.21875 C 209.464844 1.21875 209.671875 1.3125 209.859375 1.5 C 210.046875 1.6875 210.140625 1.890625 210.140625 2.113281 C 210.140625 2.675781 209.355469 3.316406 207.789062 4.027344 C 207.484375 4.167969 206.996094 4.28125 206.324219 4.359375 C 205.648438 4.441406 205.167969 4.558594 204.875 4.710938 C 205.070312 4.78125 205.25 4.816406 205.402344 4.816406 C 205.414062 4.816406 205.441406 4.816406 205.488281 4.816406 C 205.546875 4.804688 205.59375 4.800781 205.628906 4.800781 C 205.640625 4.800781 205.667969 4.804688 205.714844 4.816406 C 205.753906 4.816406 205.785156 4.816406 205.820312 4.816406 C 207.085938 4.816406 208.335938 4.664062 209.578125 4.351562 C 210.816406 4.042969 211.433594 3.886719 211.421875 3.886719 C 211.46875 3.886719 211.515625 3.898438 211.5625 3.925781 C 211.609375 3.945312 211.679688 4.046875 211.769531 4.21875 C 212.289062 4.265625 212.542969 4.476562 212.542969 4.851562 C 212.542969 5.203125 212.367188 5.507812 212.015625 5.765625 C 212.027344 5.777344 212.050781 5.800781 212.078125 5.84375 C 212.109375 5.886719 212.132812 5.917969 212.15625 5.9375 C 212.089844 6.117188 211.945312 6.203125 211.738281 6.203125 C 211.652344 6.203125 211.386719 6.128906 210.929688 5.976562 C 210.34375 5.777344 209.835938 5.625 209.402344 5.519531 C 209.203125 5.472656 208.511719 5.410156 207.332031 5.324219 C 205.808594 5.222656 205.042969 5.167969 205.03125 5.167969 C 204.785156 5.167969 204.5625 5.191406 204.367188 5.238281 C 204.679688 5.378906 205.214844 5.519531 205.960938 5.660156 C 206.792969 5.800781 207.425781 5.949219 207.859375 6.117188 C 208.617188 6.398438 209.25 6.765625 209.753906 7.222656 C 210.175781 7.597656 210.386719 7.90625 210.386719 8.152344 C 210.386719 8.375 210.273438 8.589844 210.042969 8.792969 C 209.8125 8.996094 209.582031 9.097656 209.351562 9.097656 Z M 209.351562 9.097656 " fill-opacity="1" fill-rule="nonzero"/><g clip-path="url(#c453b7ff67)"><path fill="#c9a84c" d="M 138.03125 3.78125 C 137.414062 0.195312 130.808594 0.191406 127.824219 0.4375 C 122.652344 0.871094 117.898438 2.851562 114.792969 7.203125 C 113.601562 8.871094 112.878906 10.484375 112.433594 12.140625 C 111.992188 10.484375 111.269531 8.871094 110.078125 7.203125 C 106.972656 2.851562 102.214844 0.871094 97.046875 0.4375 C 94.0625 0.191406 87.457031 0.195312 86.839844 3.78125 C 86.253906 7.179688 90.769531 8.078125 94.402344 7.851562 C 95.019531 7.8125 95.894531 7.214844 94.894531 7.234375 C 92.867188 7.269531 91.609375 7.222656 90.457031 5.476562 C 89.421875 3.902344 90.960938 2.121094 92.050781 1.65625 C 96.984375 -0.445312 103.242188 1.917969 107.007812 5.535156 C 107.972656 6.460938 108.730469 7.421875 109.339844 8.414062 C 106.40625 5.921875 101.816406 5.328125 98.402344 8.171875 C 97.949219 8.546875 97.902344 9.175781 98.539062 9.519531 C 99.074219 9.804688 100.34375 10.273438 100.941406 9.65625 C 104.707031 5.742188 109.261719 8.164062 110.554688 12.621094 C 111.855469 17.117188 106.816406 24.417969 102.382812 18.648438 C 102.105469 18.292969 100.769531 18.34375 100.960938 18.59375 C 104.277344 22.90625 109.824219 21.527344 111.628906 17.378906 C 111.65625 18.132812 111.667969 18.902344 111.667969 19.6875 L 111.667969 19.734375 C 111.667969 19.839844 111.742188 19.964844 111.894531 20.097656 C 112.046875 20.234375 112.125 20.328125 112.125 20.378906 C 112.125 20.433594 112.066406 20.492188 111.957031 20.546875 C 111.84375 20.601562 111.714844 20.628906 111.5625 20.628906 C 111.503906 20.628906 111.355469 20.597656 111.113281 20.527344 C 110.875 20.457031 110.683594 20.421875 110.542969 20.421875 C 110.402344 20.421875 110.21875 20.46875 109.988281 20.570312 C 109.761719 20.667969 109.609375 20.78125 109.523438 20.914062 C 109.480469 20.972656 109.457031 21.011719 109.457031 21.011719 C 109.457031 21.042969 109.492188 21.054688 109.5625 21.054688 C 109.617188 21.054688 109.710938 21.03125 109.832031 20.972656 C 109.957031 20.917969 110.050781 20.894531 110.121094 20.894531 C 110.191406 20.894531 110.226562 20.90625 110.226562 20.933594 C 110.226562 20.988281 110.210938 21.054688 110.183594 21.132812 C 110.15625 21.214844 110.140625 21.261719 110.140625 21.285156 C 110.140625 21.394531 110.214844 21.449219 110.367188 21.449219 L 110.703125 21.449219 C 110.910156 21.449219 111.136719 21.367188 111.367188 21.199219 C 111.636719 21 111.878906 20.882812 112.089844 20.835938 L 112.140625 20.957031 C 111.800781 21.980469 111.175781 22.816406 110.261719 23.472656 C 109.738281 23.851562 109.472656 24.03125 109.472656 24.03125 C 109.472656 24.070312 109.507812 24.085938 109.578125 24.085938 C 109.742188 24.085938 109.988281 24 110.316406 23.816406 C 110.644531 23.640625 110.894531 23.539062 111.070312 23.519531 L 111.121094 23.574219 L 111 23.714844 C 110.589844 24.007812 110.050781 24.296875 109.386719 24.589844 C 108.90625 24.800781 108.664062 24.949219 108.664062 25.035156 C 108.664062 25.253906 108.886719 25.367188 109.332031 25.367188 C 109.472656 25.367188 109.628906 25.332031 109.808594 25.265625 L 109.964844 25.253906 C 109.367188 25.535156 109.070312 25.726562 109.070312 25.835938 L 109.070312 25.894531 C 109.070312 25.976562 109.023438 26.035156 108.929688 26.066406 C 108.824219 25.992188 108.71875 25.957031 108.613281 25.957031 C 108.484375 25.957031 108.367188 25.992188 108.261719 26.0625 C 108.15625 26.128906 108.105469 26.210938 108.105469 26.308594 C 108.105469 26.453125 108.207031 26.597656 108.410156 26.738281 C 108.617188 26.878906 108.832031 26.953125 109.050781 26.953125 C 109.296875 26.953125 109.609375 26.820312 109.980469 26.558594 C 110.4375 26.246094 110.808594 25.851562 111.085938 25.378906 C 111.253906 25.105469 111.402344 24.710938 111.542969 24.195312 C 111.683594 23.726562 111.824219 23.398438 111.964844 23.199219 C 112.011719 23.324219 112.035156 23.464844 112.035156 23.617188 C 112.035156 23.625 111.984375 24.101562 111.878906 25.046875 C 111.796875 25.785156 111.730469 26.214844 111.683594 26.335938 C 111.578125 26.609375 111.425781 26.925781 111.226562 27.289062 C 111.074219 27.574219 111 27.742188 111 27.796875 C 111 27.925781 111.085938 28.011719 111.265625 28.054688 C 111.289062 28.042969 111.320312 28.027344 111.359375 28.003906 C 111.402344 27.988281 111.425781 27.976562 111.4375 27.96875 C 111.695312 28.1875 112 28.296875 112.351562 28.296875 C 112.726562 28.296875 112.9375 28.136719 112.984375 27.816406 C 113.160156 27.757812 113.257812 27.714844 113.28125 27.683594 C 113.304688 27.652344 113.316406 27.625 113.316406 27.597656 C 113.316406 27.601562 113.160156 27.222656 112.851562 26.449219 C 112.542969 25.675781 112.386719 24.894531 112.386719 24.105469 L 112.386719 24.042969 C 112.398438 24.011719 112.40625 23.996094 112.40625 23.988281 C 112.40625 23.964844 112.398438 23.9375 112.386719 23.898438 L 112.386719 23.847656 C 112.386719 23.75 112.421875 23.640625 112.492188 23.519531 C 112.644531 23.699219 112.761719 24 112.84375 24.417969 C 112.921875 24.839844 113.035156 25.144531 113.175781 25.332031 C 113.890625 26.308594 114.527344 26.800781 115.089844 26.800781 C 115.3125 26.800781 115.515625 26.742188 115.703125 26.625 C 115.890625 26.507812 115.984375 26.378906 115.984375 26.242188 C 115.984375 26.113281 115.894531 26.03125 115.710938 25.988281 C 115.53125 25.945312 115.335938 25.898438 115.132812 25.847656 C 114.929688 25.796875 114.789062 25.6875 114.71875 25.527344 C 115.128906 25.398438 115.335938 25.257812 115.335938 25.113281 C 115.335938 25.03125 115.195312 24.933594 114.914062 24.808594 C 114.433594 24.59375 114.125 24.449219 113.984375 24.371094 C 113.621094 24.167969 113.4375 23.933594 113.4375 23.667969 C 113.4375 23.664062 113.453125 23.652344 113.472656 23.636719 C 113.601562 23.652344 113.742188 23.746094 113.886719 23.921875 C 114.035156 24.097656 114.175781 24.183594 114.316406 24.183594 C 114.410156 24.183594 114.464844 24.160156 114.476562 24.105469 L 114.441406 24.03125 C 113.210938 22.886719 112.597656 21.976562 112.597656 21.296875 C 112.597656 21.082031 112.691406 20.980469 112.878906 20.980469 C 112.933594 20.980469 113.078125 21.042969 113.308594 21.171875 C 113.535156 21.300781 113.808594 21.363281 114.125 21.363281 C 114.417969 21.363281 114.582031 21.214844 114.613281 20.925781 L 114.6875 20.835938 L 114.875 20.882812 C 115.019531 20.925781 115.109375 20.957031 115.160156 20.980469 C 115.183594 20.953125 115.195312 20.925781 115.195312 20.914062 C 115.195312 20.839844 115.082031 20.742188 114.859375 20.613281 C 114.640625 20.484375 114.457031 20.421875 114.316406 20.421875 C 114.1875 20.421875 114.003906 20.460938 113.761719 20.535156 C 113.523438 20.613281 113.382812 20.652344 113.335938 20.652344 C 112.933594 20.652344 112.738281 20.589844 112.738281 20.464844 C 112.738281 20.429688 112.808594 20.339844 112.949219 20.191406 C 113.089844 20.046875 113.160156 19.945312 113.160156 19.898438 C 113.160156 19.878906 113.144531 19.863281 113.136719 19.847656 C 113.175781 19.8125 113.199219 19.769531 113.199219 19.71875 C 113.199219 18.921875 113.214844 18.144531 113.242188 17.378906 C 115.046875 21.527344 120.59375 22.90625 123.90625 18.59375 C 124.101562 18.34375 122.761719 18.292969 122.488281 18.648438 C 118.054688 24.417969 113.015625 17.117188 114.316406 12.621094 C 115.609375 8.164062 120.164062 5.742188 123.929688 9.65625 C 124.523438 10.273438 125.796875 9.804688 126.332031 9.519531 C 126.96875 9.175781 126.921875 8.546875 126.46875 8.171875 C 123.054688 5.328125 118.464844 5.921875 115.53125 8.414062 C 116.140625 7.421875 116.898438 6.460938 117.863281 5.535156 C 121.625 1.917969 127.882812 -0.445312 132.820312 1.65625 C 133.910156 2.121094 135.449219 3.902344 134.410156 5.476562 C 133.261719 7.222656 132 7.269531 129.976562 7.234375 C 128.976562 7.214844 129.851562 7.8125 130.464844 7.851562 C 134.101562 8.078125 138.613281 7.179688 138.03125 3.78125 Z M 113.457031 28.242188 C 113.386719 28.242188 113.21875 28.28125 112.949219 28.355469 C 112.679688 28.433594 112.460938 28.472656 112.296875 28.472656 C 112.113281 28.472656 111.871094 28.433594 111.570312 28.363281 C 111.273438 28.289062 111.085938 28.253906 111.019531 28.253906 C 110.949219 28.253906 110.878906 28.277344 110.816406 28.332031 C 110.75 28.378906 110.71875 28.429688 110.71875 28.484375 C 110.71875 28.605469 110.851562 28.726562 111.121094 28.851562 C 111.390625 28.96875 111.695312 29.027344 112.035156 29.027344 C 112.503906 29.027344 112.898438 28.976562 113.222656 28.871094 C 113.542969 28.765625 113.714844 28.640625 113.738281 28.492188 C 113.65625 28.324219 113.5625 28.242188 113.457031 28.242188 Z M 113.457031 28.242188 " fill-opacity="1" fill-rule="nonzero"/></g><path fill="#c9a84c" d="M 196.085938 5.460938 C 196.488281 5.460938 196.816406 5.128906 196.816406 4.726562 C 196.816406 4.324219 196.488281 3.996094 196.085938 3.996094 L 139.53125 3.996094 C 139.128906 3.996094 138.796875 4.324219 138.796875 4.726562 C 138.796875 5.128906 139.128906 5.460938 139.53125 5.460938 Z M 196.085938 5.460938 " fill-opacity="1" fill-rule="nonzero"/></svg>